Coordinates
version=1
nRows=21
nColumns=22
inDegrees=yes

Units are S.I. units (second, meters, Newtons, ...)
If the header above contains a line with 'inDegrees', this indicates whether rotational values are in degrees (yes) or radians (no).

endheader
time	pelvis_tilt	pelvis_list	pelvis_rotation	pelvis_tx	pelvis_ty	pelvis_tz	hip_flexion_r	hip_adduction_r	hip_rotation_r	knee_angle_r	ankle_angle_r	subtalar_angle_r	hip_flexion_l	hip_adduction_l	hip_rotation_l	knee_angle_l	ankle_angle_l	subtalar_angle_l	lumbar_extension	lumbar_bending	lumbar_rotation
      4.00000000	      8.47880423	      1.78939403	     76.72266241	     -0.11543855	      1.01547530	     -0.43968928	     -5.08041221	     11.80801008	     -0.45870547	     -8.49487584	      9.70770687	     -1.14887800	     21.63815867	    -10.23017513	     -9.54963527	    -28.20570428	      8.88818269	      0.85522963	    -17.32958015	      8.77236591	      8.92154555
      4.01000000	      8.42268838	      1.75784089	     76.80128579	     -0.11502076	      1.01504415	     -0.44442390	     -5.39438693	     11.72876140	     -0.50981214	     -8.36729814	      9.91781566	     -1.16486625	     21.57913903	     -9.99995291	     -9.52797574	    -26.92723983	      8.66178977	      1.26132252	    -17.31066467	      8.72698142	      8.93679914
      4.02000000	      8.37147469	      1.71522784	     76.86369829	     -0.11461903	      1.01455251	     -0.44922995	     -5.68087338	     11.65281194	     -0.54711819	     -8.28245626	     10.14483431	     -1.17137405	     21.49263739	     -9.77444073	     -9.45720899	    -25.69699097	      8.45471822	      1.67681834	    -17.27226760	      8.68650111	      8.94479029
      4.03000000	      8.34023346	      1.68434948	     76.91206402	     -0.11421893	      1.01403726	     -0.45410723	     -5.96297744	     11.59104645	     -0.58647072	     -8.24846233	     10.38646648	     -1.16522870	     21.35620081	     -9.56794140	     -9.33225446	    -24.53525602	      8.28259643	      2.13892477	    -17.24369803	      8.65665726	      8.95801563
      4.04000000	      8.31184252	      1.64635520	     76.94305716	     -0.11383135	      1.01346629	     -0.45906064	     -6.22139375	     11.52848110	     -0.60945834	     -8.25716830	     10.64717624	     -1.14838737	     21.19685629	     -9.36884283	     -9.16546372	    -23.46160335	      8.11000169	      2.55951944	    -17.19977601	      8.62838869	      8.96203352
      4.05000000	      8.28621317	      1.58188613	     76.95671772	     -0.11341228	      1.01280662	     -0.46409388	     -6.43664385	     11.47372230	     -0.57767504	     -8.31236253	     10.93622782	     -1.13635102	     21.04271154	     -9.18691081	     -8.96043546	    -22.50125498	      7.89917024	      2.84414511	    -17.11149779	      8.59821909	      8.94374908
      4.06000000	      8.28398086	      1.58352983	     76.96576808	     -0.11306408	      1.01222894	     -0.46923045	     -6.71162140	     11.41799457	     -0.61679907	     -8.40109958	     11.21574039	     -1.07888555	     20.78982855	     -9.01402663	     -8.72206979	    -21.65752940	      7.70539296	      3.25436589	    -17.09809409	      8.57548643	      8.95674513
      4.07000000	      8.27949774	      1.55326598	     76.95288824	     -0.11266639	      1.01156546	     -0.47443470	     -6.93589830	     11.36668627	     -0.59643672	     -8.53674203	     11.52145178	     -1.03133179	     20.56467133	     -8.86196095	     -8.46929829	    -20.97306328	      7.42059008	      3.48230337	    -17.03224284	      8.54248306	      8.95046776
      4.08000000	      8.27955599	      1.52100753	     76.93588352	     -0.11228624	      1.01087988	     -0.47970890	     -7.14529096	     11.31834201	     -0.55307265	     -8.70749397	     11.83766755	     -0.99011469	     20.34727620	     -8.72608925	     -8.21729330	    -20.46412708	      7.03310719	      3.60908278	    -16.95484153	      8.51016396	      8.91591522
      4.09000000	      8.27827562	      1.52126432	     76.92103651	     -0.11194233	      1.01024105	     -0.48507384	     -7.37365589	     11.25703481	     -0.53525163	     -8.91285357	     12.14498011	     -0.92103734	     20.09765503	     -8.58563450	     -7.94890023	    -20.11963796	      6.59338273	      3.66872097	    -16.89840330	      8.46240476	      8.87225959
      4.10000000	      8.27606046	      1.54124929	     76.91246286	     -0.11161643	      1.00964643	     -0.49051812	     -7.61119681	     11.18956929	     -0.51886769	     -9.14639538	     12.43964659	     -0.82939939	     19.84170072	     -8.44734508	     -7.68110082	    -19.94603009	      6.08966937	      3.60447896	    -16.84887189	      8.40132989	      8.80228359
      4.11000000	      8.27680306	      1.59710969	     76.91938514	     -0.11134156	      1.00913234	     -0.49604222	     -7.87477270	     11.11556117	     -0.51670925	     -9.40760899	     12.72832609	     -0.67838415	     19.56747135	     -8.30605066	     -7.40390736	    -19.92952903	      5.56246505	      3.29367240	    -16.82601658	      8.33451140	      8.67549961
      4.12000000	      8.25810100	      1.64511972	     76.93570491	     -0.11106869	      1.00864193	     -0.50161040	     -8.11145756	     11.02642306	     -0.50808243	     -9.69623931	     12.98744066	     -0.55013477	     19.35113618	     -8.16196262	     -7.16943650	    -20.08781173	      5.00677142	      2.83064068	    -16.77535034	      8.24169455	      8.52841622
      4.13000000	      8.22361039	      1.70183073	     76.97055224	     -0.11083429	      1.00822844	     -0.50725059	     -8.33892111	     10.92041264	     -0.51702942	    -10.01305515	     13.21856039	     -0.41984123	     19.15870839	     -8.00617516	     -6.95626097	    -20.36009048	      4.48919798	      2.24335953	    -16.71369912	      8.12784414	      8.35218607
      4.14000000	      8.18361828	      1.77009586	     77.02792547	     -0.11064275	      1.00790584	     -0.51295165	     -8.56434463	     10.80894672	     -0.53940782	    -10.35299674	     13.41604529	     -0.27781569	     18.99311494	     -7.84978589	     -6.76409023	    -20.73212980	      4.06400013	      1.56532264	    -16.64946476	      8.00674580	      8.14219354
      4.15000000	      8.14318262	      1.84553821	     77.11200750	     -0.11050540	      1.00767642	     -0.51872084	     -8.78984441	     10.69952053	     -0.57231875	    -10.70501223	     13.56433631	     -0.11572017	     18.85556506	     -7.69690323	     -6.58923233	    -21.17943538	      3.75509802	      0.83080587	    -16.57723914	      7.88785918	      7.90553230
      4.16000000	      8.04110923	      1.93535413	     77.20944738	     -0.11042255	      1.00755641	     -0.52453150	     -8.97037685	     10.52290703	     -0.63998797	    -11.14058566	     13.70313451	      0.02170314	     18.69915010	     -7.47149714	     -6.39972701	    -21.60016148	      3.53453690	      0.26174907	    -16.49366929	      7.69494094	      7.64439486
      4.17000000	      7.93676300	      2.02349339	     77.33543986	     -0.11044885	      1.00751745	     -0.53039376	     -9.13073861	     10.34511104	     -0.72570361	    -11.60301255	     13.79492696	      0.20309222	     18.54915986	     -7.23385789	     -6.18405128	    -22.02355255	      3.41137425	     -0.36963872	    -16.39620320	      7.51305228	      7.36296967
      4.18000000	      7.80555267	      2.10718136	     77.46399614	     -0.11058260	      1.00755389	     -0.53626412	     -9.23550822	     10.13443135	     -0.82865074	    -12.14235787	     13.87082503	      0.39920133	     18.38833991	     -6.96240066	     -5.97872000	    -22.41128631	      3.36217019	     -0.93807571	    -16.28386614	      7.31207784	      7.08370108
      4.19000000	      7.65019913	      2.17260883	     77.58480673	     -0.11078510	      1.00764216	     -0.54212108	     -9.25268055	      9.89512311	     -0.96352892	    -12.78922783	     13.90806853	      0.63593503	     18.20538275	     -6.66327900	     -5.77983026	    -22.72440298	      3.42280644	     -1.48894621	    -16.14264229	      7.08735885	      6.83695932
      4.20000000	      7.44906807	      2.21974484	     77.67672361	     -0.11105035	      1.00778530	     -0.54792398	     -9.16827480	      9.60080262	     -1.08079516	    -13.56318678	     13.95072173	      0.87644203	     17.98865879	     -6.31912884	     -5.62143722	    -22.93756423	      3.53163073	     -1.91532643	    -15.97464657	      6.81711181	      6.62605179
